<svg xmlns="http://www.w3.org/2000/svg" width="24" height="24" viewBox="0 0 24 24"><path d="M16,1.543a6.871,6.871,0,0,1-1.645,1.7q.01.142.01.426A9.315,9.315,0,0,1,13.98,6.3a9.521,9.521,0,0,1-1.173,2.523,9.917,9.917,0,0,1-1.873,2.137,8.34,8.34,0,0,1-2.619,1.482,9.586,9.586,0,0,1-3.279.553A9.106,9.106,0,0,1,0,11.523a7.018,7.018,0,0,0,.792.041,6.42,6.42,0,0,0,4.071-1.4A3.286,3.286,0,0,1,1.8,7.888a4.154,4.154,0,0,0,.619.051,3.392,3.392,0,0,0,.863-.112A3.226,3.226,0,0,1,1.4,6.7,3.168,3.168,0,0,1,.65,4.609V4.569a3.253,3.253,0,0,0,1.482.416A3.275,3.275,0,0,1,1.066,3.817a3.2,3.2,0,0,1-.4-1.563A3.213,3.213,0,0,1,1.117.6,9.3,9.3,0,0,0,4.107,3.02,9.137,9.137,0,0,0,7.878,4.03,3.642,3.642,0,0,1,7.8,3.279,3.16,3.16,0,0,1,8.756.959a3.287,3.287,0,0,1,4.716.076A6.43,6.43,0,0,0,15.553.244a3.184,3.184,0,0,1-1.442,1.807A6.534,6.534,0,0,0,16,1.543Z" transform="translate(4 6)" fill="#191922"/></svg>