<svg xmlns="http://www.w3.org/2000/svg" width="24" height="24" viewBox="0 0 24 24"><path d="M8,16c-1.572,0-2.683-.018-3.3-.052a4.911,4.911,0,0,1-3.354-1.292A4.908,4.908,0,0,1,.052,11.3C.017,10.691,0,9.611,0,8S.017,5.309.052,4.7A4.908,4.908,0,0,1,1.344,1.344,4.908,4.908,0,0,1,4.7.052C5.309.017,6.39,0,8,0s2.691.017,3.3.052a4.908,4.908,0,0,1,3.354,1.292A4.911,4.911,0,0,1,15.948,4.7c.035.619.052,1.73.052,3.3s-.018,2.683-.052,3.3a4.911,4.911,0,0,1-1.292,3.354A4.911,4.911,0,0,1,11.3,15.948C10.683,15.983,9.572,16,8,16Zm0-1.437.8,0,.637,0c.182,0,.338,0,.462,0,.26,0,.6-.014,1.005-.031a8.276,8.276,0,0,0,1.073-.1,4.209,4.209,0,0,0,.745-.193,2.737,2.737,0,0,0,1.521-1.521,4.21,4.21,0,0,0,.193-.745,8.276,8.276,0,0,0,.1-1.073c.017-.407.027-.746.031-1.005s0-.618,0-1.1,0-.748,0-.8,0-.314,0-.8,0-.85,0-1.1-.014-.6-.031-1a8.406,8.406,0,0,0-.1-1.074,4.2,4.2,0,0,0-.193-.744A2.729,2.729,0,0,0,12.719,1.76a4.21,4.21,0,0,0-.745-.193,8.22,8.22,0,0,0-1.073-.1c-.436-.018-.765-.028-1.005-.031H9.639c-.223,0-.508,0-.847.007H8l-.8-.005-.637,0-.462,0c-.242,0-.57.014-1,.031a8.229,8.229,0,0,0-1.074.1,4.2,4.2,0,0,0-.744.193A2.722,2.722,0,0,0,1.76,3.281a4.2,4.2,0,0,0-.193.744,8.229,8.229,0,0,0-.1,1.074c-.018.434-.028.763-.031,1s0,.619,0,1.1.005.749.005.8,0,.314-.005.8,0,.851,0,1.1.014.569.031,1.005a8.22,8.22,0,0,0,.1,1.073,4.209,4.209,0,0,0,.193.745A2.729,2.729,0,0,0,3.281,14.24a4.2,4.2,0,0,0,.744.193,8.406,8.406,0,0,0,1.074.1c.405.017.743.027,1,.031q.188,0,.462,0l.637,0ZM8,12.1A4.09,4.09,0,0,1,3.9,8,4.09,4.09,0,0,1,8,3.9,4.09,4.09,0,0,1,12.1,8,4.09,4.09,0,0,1,8,12.1ZM8,5.333A2.667,2.667,0,0,0,5.333,8,2.667,2.667,0,0,0,8,10.667,2.667,2.667,0,0,0,10.667,8,2.667,2.667,0,0,0,8,5.333Zm4.271-.646a.96.96,0,0,1-.958-.958.959.959,0,1,1,1.636.677A.93.93,0,0,1,12.271,4.687Z" transform="translate(4 4)" fill="#191922"/></svg>