<svg xmlns="http://www.w3.org/2000/svg" width="18" height="18" viewBox="0 0 18 18"><path d="M5.378,13.443l-.065-.037-.235-.165-.284-.211c-.117-.09-.216-.166-.31-.242a17.537,17.537,0,0,1-1.8-1.644C.9,9.264,0,7.407,0,5.625a5.625,5.625,0,0,1,11.25,0c0,1.782-.9,3.64-2.686,5.52a17.569,17.569,0,0,1-1.8,1.644l-.209.165-.036.028-.065.049-.284.211-.235.165a.563.563,0,0,1-.312.094A.572.572,0,0,1,5.378,13.443ZM1.125,5.625c0,1.484.8,3.081,2.377,4.746a16.331,16.331,0,0,0,1.683,1.538c.158.126.306.24.44.339l.14-.1c.1-.079.2-.156.3-.234a16.235,16.235,0,0,0,1.682-1.538c1.577-1.665,2.377-3.261,2.377-4.746a4.5,4.5,0,0,0-9,0Zm2.25,0a2.25,2.25,0,1,1,2.25,2.25A2.252,2.252,0,0,1,3.375,5.625Zm1.125,0A1.125,1.125,0,1,0,5.625,4.5,1.126,1.126,0,0,0,4.5,5.625Z" transform="translate(3.75 2.25)" fill="#f01863"/></svg>